<svg xmlns="http://www.w3.org/2000/svg" xmlns:xlink="http://www.w3.org/1999/xlink" width="640" height="360" viewBox="0 0 640 360">
  <defs>
    <linearGradient id="picture-a" x1="50%" x2="50%" y1="0%" y2="100%">
      <stop offset="0%" stop-color="#244281"/>
      <stop offset="100%" stop-color="#11295B"/>
    </linearGradient>
    <path id="picture-c" d="M205,62.2405063 C205,63.3766938 205.357724,64.2113821 206.253165,64.7468354 C206.788618,65.6422764 207.682927,66 208.759494,66 L267.240506,66 C268.317073,66 269.211382,65.6422764 269.746835,64.7468354 C270.642276,64.2113821 271,63.3766938 271,62.2405063 L271,3.75949367 C271,2.98102981 270.582656,2.08672087 269.746835,1.25316456 C268.913279,0.417344173 268.078591,0 267.240506,0 L248.860759,0 L248.860759,25.8987342 L256.797468,25.8987342 L256.797468,36.7594937 L248.860759,36.7594937 L248.860759,39.2658228 C248.821138,39.7073171 248.850949,40.0650407 248.860759,40.5189873 C248.97019,40.7804878 249,41.0189702 248.860759,40.9367089 C249,41.3766938 249.119241,41.8536585 249.278481,42.6075949 C249.596206,43.1653117 250.01355,43.5826558 250.531646,43.8607595 C250.96748,43.9403794 251.742547,44 253.037975,43.8607595 L256.379747,43.8607595 L256.379747,53.4683544 C256.09485,53.5989178 253.710027,53.8373984 253.455696,53.8860759 L250.949367,53.8860759 C249.119241,53.8373984 247.330623,53.7181572 245.518987,53.4683544 C244.230352,53.3604336 242.918699,52.8834688 241.341772,52.2151899 C240.295393,51.3333333 239.460705,50.3197832 238.835443,48.8734177 C238.387534,47.4579946 238.089431,45.7289973 238,43.8607595 L238,36.7594937 L230.063291,36.7594937 L230.063291,25.8987342 L238,25.8987342 L238,0 L208.759494,0 C207.682927,0.178861789 206.788618,0.536585366 206.253165,1.25316456 C205.357724,1.96747967 205,2.86178862 205,3.75949367 L205,62.2405063 Z"/>
    <filter id="picture-b" width="139.4%" height="139.4%" x="-16.7%" y="-16.7%" filterUnits="objectBoundingBox">
      <feOffset dx="2" dy="2" in="SourceAlpha" result="shadowOffsetOuter1"/>
      <feGaussianBlur in="shadowOffsetOuter1" result="shadowBlurOuter1" stdDeviation="4"/>
      <feColorMatrix in="shadowBlurOuter1" values="0 0 0 0 0   0 0 0 0 0   0 0 0 0 0  0 0 0 0.0726052989 0"/>
    </filter>
  </defs>
  <g fill="none" fill-rule="evenodd">
    <rect width="640" height="360" fill="url(#picture-a)"/>
    <g transform="translate(129 63)">
      <ellipse cx="117.065" cy="117" fill="#8F8F8F" opacity=".7" rx="117.065" ry="117"/>
      <ellipse cx="264.935" cy="117" fill="#3065D2" opacity=".7" rx="117.065" ry="117"/>
      <path fill="#FFF" d="M191,26.2838348 C217.320933,47.7381488 234.129032,80.4072852 234.129032,117 C234.129032,153.592715 217.320933,186.261851 191,207.716165 C164.679067,186.261851 147.870968,153.592715 147.870968,117 C147.870968,80.4072852 164.679067,47.7381488 191,26.2838348 Z"/>
    </g>
    <g opacity=".7" transform="translate(189 147)">
      <g fill="#F2F2F2" transform="translate(0 5)">
        <path d="M52.6323407,3.37550205 C48.2839705,-0.972868141 41.2333366,-0.972868141 36.884095,3.37550205 L29.5310794,10.7285176 C25.1827093,15.0768878 25.1827093,22.1275217 29.5310794,26.4758919 C33.8794496,30.8251335 40.9300835,30.8251335 45.2793251,26.4758919 L52.6323407,19.1228763 C56.9807109,14.7736347 56.9807109,7.72387224 52.6323407,3.37550205 L52.6323407,3.37550205 Z M47.5493661,15.2694709 L41.4250483,21.3929173 C39.557602,23.2603636 36.5311712,23.2603636 34.6645962,21.3929173 C32.7971499,19.5254709 32.7971499,16.4999115 34.6645962,14.6324652 L40.788914,8.50814742 C42.6554889,6.64070106 45.6819197,6.64070106 47.5493661,8.50814742 C49.415941,10.3747224 49.415941,13.4020246 47.5493661,15.2694709 L47.5493661,15.2694709 Z M10.7285176,29.530208 L3.37550205,36.8832236 C-0.972868141,41.2315938 -0.972868141,48.2822277 3.37550205,52.6305979 C7.72387224,56.9789681 14.7745061,56.9789681 19.1237477,52.6305979 L26.4767633,45.2775823 C30.8251335,40.9292121 30.8251335,33.8777068 26.4767633,29.5293366 C22.1283931,25.1809664 15.0768878,25.1818378 10.7285176,29.530208 L10.7285176,29.530208 Z M21.3937887,41.4233055 L15.2694709,47.5476233 C13.4020246,49.4150696 10.3755938,49.4150696 8.50901884,47.5476233 C6.64157248,45.6801769 6.64157248,42.6537461 8.50901884,40.7871712 L14.6324652,34.6628534 C16.4999115,32.795407 19.5263423,32.795407 21.3937887,34.6628534 C23.2603636,36.5302998 23.2603636,39.5567305 21.3937887,41.4233055 L21.3937887,41.4233055 Z"/>
        <path d="M39.0582801,16.9425913 C37.4897297,15.3749124 34.9478067,15.3749124 33.3792563,16.9425913 L16.9434627,33.3792563 C15.3749124,34.9469353 15.3749124,37.4897297 16.9434627,39.0582801 C18.5111417,40.625959 21.0539361,40.625959 22.6224865,39.0582801 L39.0582801,22.6207437 C40.6268305,21.0521933 40.6268305,18.5102703 39.0582801,16.9425913 L39.0582801,16.9425913 Z" opacity=".6"/>
      </g>
      <g transform="matrix(1 0 0 -1 0 66)">
        <use fill="#000" filter="url(#picture-b)" xlink:href="#picture-c"/>
        <use fill="#FFFFFE" xlink:href="#picture-c"/>
      </g>
    </g>
  </g>
</svg>
