<?xml version="1.0" encoding="UTF-8" standalone="no"?>
<svg width="640px" height="360px" viewBox="0 0 640 360" version="1.1" xmlns="http://www.w3.org/2000/svg" xmlns:xlink="http://www.w3.org/1999/xlink">
    <!-- Generator: Sketch 3.6.1 (26313) - http://www.bohemiancoding.com/sketch -->
    <title>custom audiences</title>
    <desc>Created with Sketch.</desc>
    <defs>
        <radialGradient cx="-7.10561993%" cy="146.843561%" fx="-7.10561993%" fy="146.843561%" r="118.171555%" id="radialGradient-1">
            <stop stop-color="#4BC2B8" offset="0%"></stop>
            <stop stop-color="#25A4D5" offset="100%"></stop>
        </radialGradient>
        <linearGradient x1="50%" y1="0%" x2="50%" y2="100%" id="linearGradient-2">
            <stop stop-color="#2B4E98" offset="0%"></stop>
            <stop stop-color="#14306B" offset="100%"></stop>
        </linearGradient>
        <filter x="-50%" y="-50%" width="200%" height="200%" filterUnits="objectBoundingBox" id="filter-3">
            <feOffset dx="2" dy="2" in="SourceAlpha" result="shadowOffsetOuter1"></feOffset>
            <feGaussianBlur stdDeviation="4" in="shadowOffsetOuter1" result="shadowBlurOuter1"></feGaussianBlur>
            <feColorMatrix values="0 0 0 0 0   0 0 0 0 0   0 0 0 0 0  0 0 0 0.0508237092 0" in="shadowBlurOuter1" type="matrix" result="shadowMatrixOuter1"></feColorMatrix>
            <feMerge>
                <feMergeNode in="shadowMatrixOuter1"></feMergeNode>
                <feMergeNode in="SourceGraphic"></feMergeNode>
            </feMerge>
        </filter>
    </defs>
    <g id="Ships" stroke="none" stroke-width="1" fill="none" fill-rule="evenodd">
        <g id="custom-audiences">
            <rect id="B" fill="url(#linearGradient-2)" x="0" y="0" width="640" height="360"></rect>
            <rect id="B-Copy" fill="#000000" opacity="0.143598414" style="mix-blend-mode: darken;" x="0" y="0" width="640" height="360"></rect>
            <g id="Group-3" transform="translate(129.000000, 63.000000)">
                <ellipse id="Oval-11" fill="#8F8F8F" opacity="0.7" cx="117.064516" cy="117" rx="117.064516" ry="117"></ellipse>
                <ellipse id="Oval-11-Copy" fill="#3064D2" opacity="0.7" cx="264.935484" cy="117" rx="117.064516" ry="117"></ellipse>
                <path d="M191,207.716165 C217.320933,186.261851 234.129032,153.592715 234.129032,117 C234.129032,80.4072852 217.320933,47.7381488 191,26.2838348 C164.679067,47.7381488 147.870968,80.4072852 147.870968,117 C147.870968,153.592715 164.679067,186.261851 191,207.716165 Z" id="Combined-Shape" fill="#FFFFFF"></path>
            </g>
            <g id="Group-2" opacity="0.7" transform="translate(168.000000, 147.000000)">
                <g id="Group" transform="translate(21.000000, 5.000000)" fill="#F2F2F2">
                    <path d="M52.6323407,3.37550205 C48.2839705,-0.972868141 41.2333366,-0.972868141 36.884095,3.37550205 L29.5310794,10.7285176 C25.1827093,15.0768878 25.1827093,22.1275217 29.5310794,26.4758919 C33.8794496,30.8251335 40.9300835,30.8251335 45.2793251,26.4758919 L52.6323407,19.1228763 C56.9807109,14.7736347 56.9807109,7.72387224 52.6323407,3.37550205 L52.6323407,3.37550205 Z M47.5493661,15.2694709 L41.4250483,21.3929173 C39.557602,23.2603636 36.5311712,23.2603636 34.6645962,21.3929173 C32.7971499,19.5254709 32.7971499,16.4999115 34.6645962,14.6324652 L40.788914,8.50814742 C42.6554889,6.64070106 45.6819197,6.64070106 47.5493661,8.50814742 C49.415941,10.3747224 49.415941,13.4020246 47.5493661,15.2694709 L47.5493661,15.2694709 Z M10.7285176,29.530208 L3.37550205,36.8832236 C-0.972868141,41.2315938 -0.972868141,48.2822277 3.37550205,52.6305979 C7.72387224,56.9789681 14.7745061,56.9789681 19.1237477,52.6305979 L26.4767633,45.2775823 C30.8251335,40.9292121 30.8251335,33.8777068 26.4767633,29.5293366 C22.1283931,25.1809664 15.0768878,25.1818378 10.7285176,29.530208 L10.7285176,29.530208 Z M21.3937887,41.4233055 L15.2694709,47.5476233 C13.4020246,49.4150696 10.3755938,49.4150696 8.50901884,47.5476233 C6.64157248,45.6801769 6.64157248,42.6537461 8.50901884,40.7871712 L14.6324652,34.6628534 C16.4999115,32.795407 19.5263423,32.795407 21.3937887,34.6628534 C23.2603636,36.5302998 23.2603636,39.5567305 21.3937887,41.4233055 L21.3937887,41.4233055 Z" id="Shape"></path>
                    <path d="M39.0582801,16.9425913 C37.4897297,15.3749124 34.9478067,15.3749124 33.3792563,16.9425913 L16.9434627,33.3792563 C15.3749124,34.9469353 15.3749124,37.4897297 16.9434627,39.0582801 C18.5111417,40.625959 21.0539361,40.625959 22.6224865,39.0582801 L39.0582801,22.6207437 C40.6268305,21.0521933 40.6268305,18.5102703 39.0582801,16.9425913 L39.0582801,16.9425913 Z" id="Shape" opacity="0.6"></path>
                </g>
                <path d="M226,62.2405063 C226,63.3766938 226.357724,64.2113821 227.253165,64.7468354 C227.788618,65.6422764 228.682927,66 229.759494,66 L288.240506,66 C289.317073,66 290.211382,65.6422764 290.746835,64.7468354 C291.642276,64.2113821 292,63.3766938 292,62.2405063 L292,3.75949367 C292,2.98102981 291.582656,2.08672087 290.746835,1.25316456 C289.913279,0.417344173 289.078591,0 288.240506,0 L269.860759,0 L269.860759,25.8987342 L277.797468,25.8987342 L277.797468,36.7594937 L269.860759,36.7594937 L269.860759,39.2658228 C269.821138,39.7073171 269.850949,40.0650407 269.860759,40.5189873 C269.97019,40.7804878 270,41.0189702 269.860759,40.9367089 C270,41.3766938 270.119241,41.8536585 270.278481,42.6075949 C270.596206,43.1653117 271.01355,43.5826558 271.531646,43.8607595 C271.96748,43.9403794 272.742547,44 274.037975,43.8607595 L277.379747,43.8607595 L277.379747,53.4683544 C277.09485,53.5989178 274.710027,53.8373984 274.455696,53.8860759 L271.949367,53.8860759 C270.119241,53.8373984 268.330623,53.7181572 266.518987,53.4683544 C265.230352,53.3604336 263.918699,52.8834688 262.341772,52.2151899 C261.295393,51.3333333 260.460705,50.3197832 259.835443,48.8734177 C259.387534,47.4579946 259.089431,45.7289973 259,43.8607595 L259,36.7594937 L251.063291,36.7594937 L251.063291,25.8987342 L259,25.8987342 L259,0 L229.759494,0 C228.682927,0.178861789 227.788618,0.536585366 227.253165,1.25316456 C226.357724,1.96747967 226,2.86178862 226,3.75949367 L226,62.2405063 Z" id="Shape-33" fill="#FFFFFF" filter="url(#filter-3)" transform="translate(259.000000, 33.000000) scale(1, -1) translate(-259.000000, -33.000000) "></path>
            </g>
        </g>
    </g>
</svg>